<?xml version="1.0" encoding="UTF-8"?>
<svg xmlns="http://www.w3.org/2000/svg" xmlns:xlink="http://www.w3.org/1999/xlink" width="50px" height="50px" viewBox="0 0 50 50" version="1.1">
<g id="surface1">
<path style=" stroke:none;fill-rule:nonzero;fill:rgb(100%,100%,100%);fill-opacity:1;" d="M 31.210938 17.027344 C 33.238281 16.925781 33.550781 20.25 31.324219 19.960938 C 29.480469 19.90625 29.246094 17.078125 31.210938 17.027344 Z M 31.210938 17.027344 "/>
<path style=" stroke:none;fill-rule:nonzero;fill:rgb(0%,0%,0%);fill-opacity:1;" d="M 37.859375 24.941406 C 38.019531 13.046875 33.253906 11.507812 22.390625 12.167969 C 14.902344 11.589844 11.964844 17.257812 11.945312 23.964844 C 11.539062 30.53125 13.5625 38.828125 21.734375 38.128906 C 31.933594 37.949219 38.332031 36.914062 37.859375 24.941406 Z M 20.023438 4.46875 C 31.707031 3.382812 45.230469 5.054688 45.390625 19.679688 C 45.800781 26.410156 46.019531 33.625 42.722656 39.730469 C 39.210938 45.703125 33.359375 45.453125 27.273438 45.59375 C 21.921875 45.808594 16.402344 46.269531 11.242188 44.515625 C 5.980469 42.695312 4.550781 38.726562 4.667969 33.535156 C 4.484375 29.066406 4.300781 24.609375 4.378906 20.136719 C 4.640625 9.535156 9.269531 4.222656 20.023438 4.46875 Z M 20.023438 4.46875 "/>
<path style=" stroke:none;fill-rule:nonzero;fill:rgb(100%,100%,100%);fill-opacity:1;" d="M 22.390625 12.167969 C 33.253906 11.507812 38.015625 13.046875 37.859375 24.941406 C 38.332031 36.914062 31.933594 37.941406 21.738281 38.128906 C 13.5625 38.828125 11.542969 30.523438 11.949219 23.964844 C 11.964844 17.257812 14.902344 11.589844 22.390625 12.167969 Z M 35.570312 25.316406 C 35.570312 17.953125 34.664062 14.050781 26.300781 14.425781 C 23.8125 14.667969 20.90625 14.300781 18.410156 15.148438 C 13.394531 17.597656 14.085938 24.335938 14.550781 29.003906 C 15.003906 36.554688 21.261719 36.328125 27.117188 35.488281 C 34.3125 35.105469 35.636719 32 35.570312 25.316406 Z M 35.570312 25.316406 "/>
<path style=" stroke:none;fill-rule:nonzero;fill:rgb(100%,100%,100%);fill-opacity:1;" d="M 25.792969 20.484375 C 20.496094 20.214844 18.863281 28.9375 24.671875 29.171875 C 30.132812 29.042969 30.972656 22.039062 25.792969 20.484375 Z M 24.683594 18.480469 C 33.828125 17.863281 33.265625 31.378906 24.640625 31.285156 C 16.46875 31.035156 17.234375 19.210938 24.683594 18.480469 Z M 24.683594 18.480469 "/>
<path style=" stroke:none;fill-rule:nonzero;fill:rgb(0%,0%,0%);fill-opacity:1;" d="M 24.679688 29.171875 C 18.867188 28.933594 20.496094 20.210938 25.796875 20.484375 C 30.972656 22.039062 30.132812 29.042969 24.679688 29.171875 Z M 24.679688 29.171875 "/>
<path style=" stroke:none;fill-rule:nonzero;fill:rgb(0%,0%,0%);fill-opacity:1;" d="M 26.300781 14.425781 C 34.664062 14.046875 35.574219 17.953125 35.570312 25.316406 C 35.632812 32 34.3125 35.105469 27.117188 35.488281 C 21.261719 36.328125 15.003906 36.554688 14.550781 29.003906 C 14.085938 24.328125 13.398438 17.597656 18.410156 15.148438 C 20.90625 14.300781 23.8125 14.667969 26.300781 14.425781 Z M 24.648438 31.285156 C 33.265625 31.378906 33.832031 17.863281 24.6875 18.480469 C 17.234375 19.210938 16.46875 31.035156 24.648438 31.285156 Z M 31.324219 19.960938 C 33.550781 20.25 33.238281 16.933594 31.210938 17.027344 C 29.246094 17.078125 29.480469 19.90625 31.324219 19.960938 Z M 31.324219 19.960938 "/>
</g>
</svg>
